<svg width="41" height="12" viewBox="0 0 123 36" fill="none" xmlns="http://www.w3.org/2000/svg">
<path d="M17.4727 31.5273C14.9766 31.5273 12.7266 31.2344 10.7227 30.6484C8.73047 30.0508 7.01953 29.1836 5.58984 28.0469C4.17188 26.9102 3.08203 25.5273 2.32031 23.8984C1.57031 22.2578 1.19531 20.3828 1.19531 18.2734V18.2559C1.19531 15.5254 1.85156 13.1816 3.16406 11.2246C4.47656 9.25586 6.3457 7.74414 8.77148 6.68945C11.209 5.63477 14.0859 5.10742 17.4023 5.10742C20.1445 5.10742 22.5996 5.50586 24.7676 6.30273C26.9355 7.08789 28.7109 8.17187 30.0938 9.55469C31.4883 10.9258 32.3789 12.4844 32.7656 14.2305L32.8008 14.4062H23.9414L23.8535 14.2832C23.3613 13.5098 22.5879 12.8887 21.5332 12.4199C20.4902 11.9512 19.2012 11.7168 17.666 11.7168C16.2129 11.7168 14.9238 11.957 13.7988 12.4375C12.6738 12.918 11.7832 13.6387 11.127 14.5996C10.4824 15.5605 10.1602 16.7676 10.1602 18.2207V18.2559C10.1602 19.334 10.3418 20.2949 10.7051 21.1387C11.0684 21.9707 11.584 22.668 12.252 23.2305C12.9199 23.793 13.7227 24.2207 14.6602 24.5137C15.5977 24.8066 16.6465 24.9531 17.8066 24.9531C18.9434 24.9531 19.9512 24.8359 20.8301 24.6016C21.709 24.3555 22.4414 23.998 23.0273 23.5293C23.625 23.0605 24.041 22.4805 24.2754 21.7891L24.293 21.6836H17.7715V16.709H33.0117V19.2402C33.0117 21.0684 32.6484 22.7383 31.9219 24.25C31.207 25.75 30.1699 27.0449 28.8105 28.1348C27.4512 29.2246 25.8164 30.0625 23.9062 30.6484C21.9961 31.2344 19.8516 31.5273 17.4727 31.5273ZM36.123 31V5.63477H44.9473V31H36.123ZM62.8242 31.5273C59.8594 31.5273 57.3105 31.2109 55.1777 30.5781C53.0566 29.9453 51.375 29.0195 50.1328 27.8008C48.9023 26.5703 48.1582 25.0645 47.9004 23.2832L47.8652 23.0371H56.2852L56.3203 23.1602C56.4492 23.6758 56.7891 24.1152 57.3398 24.4785C57.8906 24.8418 58.6348 25.1172 59.5723 25.3047C60.5098 25.4922 61.6289 25.5859 62.9297 25.5859C63.9844 25.5859 64.8867 25.498 65.6367 25.3223C66.3867 25.1348 66.9668 24.877 67.377 24.5488C67.7871 24.2207 67.9922 23.834 67.9922 23.3887V23.3711C67.9922 22.8086 67.7402 22.3984 67.2363 22.1406C66.7441 21.8711 65.8652 21.666 64.5996 21.5254L58.1309 21.0684C54.9082 20.7754 52.4883 20.0137 50.8711 18.7832C49.2656 17.541 48.4629 15.8184 48.4629 13.6152V13.5801C48.4629 11.8105 49.002 10.293 50.0801 9.02734C51.1582 7.76172 52.7051 6.79492 54.7207 6.12695C56.7363 5.44727 59.1387 5.10742 61.9277 5.10742C64.7285 5.10742 67.1309 5.41797 69.1348 6.03906C71.1504 6.66016 72.7383 7.5625 73.8984 8.74609C75.0586 9.92969 75.7676 11.3652 76.0254 13.0527L76.0781 13.4043H67.6582L67.623 13.2637C67.5059 12.7715 67.2188 12.3672 66.7617 12.0508C66.3047 11.7227 65.6777 11.4766 64.8809 11.3125C64.0957 11.1367 63.1523 11.0488 62.0508 11.0488C60.9727 11.0488 60.0703 11.1309 59.3438 11.2949C58.6289 11.4473 58.0898 11.6758 57.7266 11.9805C57.375 12.2734 57.1992 12.625 57.1992 13.0352V13.0527C57.1992 13.5918 57.4688 14.002 58.0078 14.2832C58.5469 14.5527 59.4492 14.752 60.7148 14.8809L67.3242 15.3555C69.4336 15.5547 71.1855 15.9531 72.5801 16.5508C73.9746 17.1367 75.0176 17.9395 75.709 18.959C76.4004 19.9785 76.7461 21.2266 76.7461 22.7031V22.7207C76.7461 24.5488 76.1953 26.125 75.0938 27.4492C73.9922 28.7617 72.3984 29.7695 70.3125 30.4727C68.2383 31.1758 65.7422 31.5273 62.8242 31.5273ZM87.1523 31V12.1562H77.8008V5.63477H105.311V12.1562H95.959V31H87.1523Z" fill="#1F1A0D"/>
<rect x="116" y="1" width="7" height="33" fill="#7591EB"/>
</svg> 